<svg width="32" height="32" viewBox="0 0 32 32" fill="none" xmlns="http://www.w3.org/2000/svg">
<path d="M11.0013 28V25.3333H4.66797C4.13464 25.3333 3.66797 25.1333 3.26797 24.7333C2.86797 24.3333 2.66797 23.8667 2.66797 23.3333V6C2.66797 5.46667 2.86797 5 3.26797 4.6C3.66797 4.2 4.13464 4 4.66797 4H16.668V6H4.66797V23.3333H27.3346V18.6667H29.3346V23.3333C29.3346 23.8667 29.1346 24.3333 28.7346 24.7333C28.3346 25.1333 27.868 25.3333 27.3346 25.3333H21.0013V28H11.0013ZM22.668 18.2L16.468 12L17.868 10.6L21.668 14.4V4H23.668V14.4L27.468 10.6L28.868 12L22.668 18.2Z" fill="white"/>
</svg>
