<svg width="29" height="29" viewBox="0 0 29 29" fill="none" xmlns="http://www.w3.org/2000/svg">
<path d="M14.5 0C15.88 0 17 1.12 17 2.5V12H26.5C27.163 12 27.7989 12.2634 28.2678 12.7322C28.7366 13.2011 29 13.837 29 14.5C29 15.163 28.7366 15.7989 28.2678 16.2678C27.7989 16.7366 27.163 17 26.5 17H17V26.5C17 27.163 16.7366 27.7989 16.2678 28.2678C15.7989 28.7366 15.163 29 14.5 29C13.837 29 13.2011 28.7366 12.7322 28.2678C12.2634 27.7989 12 27.163 12 26.5V17H2.5C1.83696 17 1.20107 16.7366 0.732233 16.2678C0.263392 15.7989 0 15.163 0 14.5C0 13.837 0.263392 13.2011 0.732233 12.7322C1.20107 12.2634 1.83696 12 2.5 12H12V2.5C12 1.12 13.12 0 14.5 0Z" fill="#323232"/>
</svg>
