<svg width="60" height="60" viewBox="0 0 60 60" fill="none" xmlns="http://www.w3.org/2000/svg">
<path d="M18.9701 44.4591C17.2783 46.031 15.5125 46.736 13.6727 46.5742C11.8329 46.4124 10.2363 45.7074 8.88282 44.4591C7.52938 43.2108 6.63062 41.6043 6.18652 39.6394C5.74242 37.6745 6.09136 35.6519 7.23332 33.5714L12.4356 24.0707C11.2936 23.0999 10.3843 21.8833 9.70757 20.4209C9.03085 18.9582 8.69249 17.3777 8.69249 15.6796C8.69249 12.7425 9.6492 10.2284 11.5626 8.13731C13.476 6.04577 15.776 5 18.4626 5C21.1492 5 23.4492 6.04577 25.3626 8.13731C27.276 10.2284 28.2327 12.7425 28.2327 15.6796C28.2327 18.6167 27.276 21.1308 25.3626 23.2219C23.4492 25.3135 21.1492 26.3592 18.4626 26.3592C18.0058 26.3592 17.549 26.3245 17.0923 26.2552C16.6355 26.1859 16.2041 26.0818 15.798 25.9431L10.4689 35.7212C9.87675 36.7846 9.69023 37.8273 9.90931 38.8495C10.128 39.8712 10.5932 40.7034 11.305 41.346C12.0164 41.9882 12.848 42.344 13.7996 42.4133C14.7512 42.4827 15.65 42.1244 16.4959 41.3384L43.9664 15.5409C45.6582 13.969 47.4346 13.2524 49.2956 13.3911C51.1565 13.5298 52.7637 14.2233 54.1172 15.4716C55.4706 16.7198 56.3694 18.338 56.8135 20.3259C57.2576 22.3139 56.9086 24.3481 55.7667 26.4286L50.6279 35.9293C51.7698 36.9001 52.6792 38.1167 53.3559 39.5791C54.0326 41.0418 54.371 42.6223 54.371 44.3204C54.371 47.257 53.4079 49.7712 51.4818 51.8627C49.5553 53.9542 47.2396 55 44.5349 55C41.8297 55 39.536 53.9542 37.6539 51.8627C35.7718 49.7712 34.8307 47.257 34.8307 44.3204C34.8307 41.3837 35.7718 38.8696 37.6539 36.7781C39.536 34.6865 41.8305 33.6408 44.5374 33.6408C44.9912 33.6408 45.4326 33.6639 45.8614 33.7101C46.2899 33.7564 46.7156 33.8488 47.1385 33.9875L52.4677 24.2788C53.0598 23.2154 53.2463 22.1727 53.0272 21.1505C52.8086 20.1288 52.3433 19.2966 51.6315 18.654C50.9201 18.0118 50.0886 17.656 49.137 17.5867C48.1853 17.5173 47.2866 17.8756 46.4407 18.6616L18.9701 44.4591ZM18.4728 22.1983C20.1155 22.1983 21.5184 21.5589 22.6815 20.2802C23.8446 19.0014 24.4262 17.4642 24.4262 15.6685C24.4262 13.8729 23.8412 12.3393 22.6714 11.068C21.5015 9.79658 20.0952 9.16089 18.4525 9.16089C16.8097 9.16089 15.4068 9.80028 14.2437 11.0791C13.0806 12.3578 12.499 13.8951 12.499 15.6907C12.499 17.4864 13.084 19.0199 14.2538 20.2913C15.4237 21.5626 16.83 22.1983 18.4728 22.1983ZM44.5456 50.8391C46.2011 50.8391 47.6179 50.1997 48.7963 48.9209C49.975 47.6422 50.5644 46.1049 50.5644 44.3093C50.5644 42.5136 49.975 40.9801 48.7963 39.7087C47.6179 38.4374 46.2011 37.8017 44.5456 37.8017C42.8906 37.8017 41.4922 38.4411 40.3502 39.7198C39.2082 40.9986 38.6373 42.5358 38.6373 44.3315C38.6373 46.1271 39.2082 47.6607 40.3502 48.932C41.4922 50.2034 42.8906 50.8391 44.5456 50.8391Z" fill="#323232"/>
</svg>
