<svg width="60" height="60" viewBox="0 0 60 60" fill="none" xmlns="http://www.w3.org/2000/svg">
<path d="M33.9375 38.75C34.6292 38.75 35.2292 38.4958 35.7375 37.9875C36.2458 37.4792 36.5 36.8792 36.5 36.1875C36.5 35.4958 36.2458 34.8958 35.7375 34.3875C35.2292 33.8792 34.6292 33.625 33.9375 33.625C33.2458 33.625 32.6458 33.8792 32.1375 34.3875C31.6292 34.8958 31.375 35.4958 31.375 36.1875C31.375 36.8792 31.6292 37.4792 32.1375 37.9875C32.6458 38.4958 33.2458 38.75 33.9375 38.75ZM32.375 30.875H35.3125C35.3958 29.6667 35.5729 28.7708 35.8438 28.1875C36.1146 27.6042 36.7917 26.7917 37.875 25.75C39 24.6667 39.7812 23.7208 40.2188 22.9125C40.6562 22.1046 40.875 21.1546 40.875 20.0625C40.875 18.1508 40.2188 16.5896 38.9062 15.3787C37.5938 14.1679 35.875 13.5625 33.75 13.5625C32.1667 13.5625 30.75 13.9896 29.5 14.8438C28.25 15.6979 27.3333 16.8958 26.75 18.4375L29.5625 19.625C30.0208 18.5833 30.5938 17.7917 31.2812 17.25C31.9688 16.7083 32.7917 16.4375 33.75 16.4375C34.9908 16.4375 35.999 16.7917 36.7744 17.5C37.5498 18.2083 37.9375 19.1042 37.9375 20.1875C37.9375 21.0208 37.75 21.75 37.375 22.375C37 23 36.3333 23.6667 35.375 24.375C34.0417 25.5833 33.2083 26.5521 32.875 27.2812C32.5417 28.0104 32.375 29.2083 32.375 30.875ZM16.25 47.5C15.25 47.5 14.375 47.125 13.625 46.375C12.875 45.625 12.5 44.75 12.5 43.75V8.75C12.5 7.75 12.875 6.875 13.625 6.125C14.375 5.375 15.25 5 16.25 5H51.25C52.25 5 53.125 5.375 53.875 6.125C54.625 6.875 55 7.75 55 8.75V43.75C55 44.75 54.625 45.625 53.875 46.375C53.125 47.125 52.25 47.5 51.25 47.5H16.25ZM16.25 43.75H51.25V8.75H16.25V43.75ZM8.75 55C7.75 55 6.875 54.625 6.125 53.875C5.375 53.125 5 52.25 5 51.25V12.5H8.75V51.25H47.5V55H8.75Z" fill="#323232"/>
</svg>
