<svg width="60" height="60" viewBox="0 0 60 60" fill="none" xmlns="http://www.w3.org/2000/svg">
<path d="M25.0475 41.1875C29.5575 41.1875 33.3854 39.6092 36.5312 36.4525C39.6771 33.2954 41.25 29.4621 41.25 24.9525C41.25 20.4425 39.6717 16.6146 36.515 13.4688C33.3579 10.3229 29.5246 8.75 25.015 8.75C20.505 8.75 16.6771 10.3283 13.5312 13.485C10.3854 16.6421 8.8125 20.4754 8.8125 24.985C8.8125 29.495 10.3908 33.3229 13.5475 36.4688C16.7046 39.6146 20.5379 41.1875 25.0475 41.1875ZM22.25 33.125L35.25 20.125L32.625 17.4375L22.25 27.8125L16.8125 22.3125L14.125 24.9375L22.25 33.125ZM25.0625 44.9375C19.5208 44.9375 14.8021 42.9896 10.9062 39.0938C7.01042 35.1979 5.0625 30.4792 5.0625 24.9375C5.0625 19.3958 7.01042 14.6875 10.9062 10.8125C14.8021 6.9375 19.5208 5 25.0625 5C30.6042 5 35.3125 6.94792 39.1875 10.8438C43.0625 14.7396 45 19.4583 45 25C45 27.4583 44.5973 29.7481 43.7919 31.8694C42.9865 33.991 41.8475 35.9304 40.375 37.6875L55 52.3125L52.375 55L37.75 40.375C35.9808 41.8279 34.0281 42.9515 31.8919 43.7456C29.7556 44.5402 27.4792 44.9375 25.0625 44.9375Z" fill="#323232"/>
</svg>
