<svg width="60" height="60" viewBox="0 0 60 60" fill="none" xmlns="http://www.w3.org/2000/svg">
<path d="M28.125 50.375V31.0625L11.25 21.3125V40.625L28.125 50.375ZM31.875 50.375L48.75 40.625V21.25L31.875 31.0525V50.375ZM30 27.875L46.625 18.1875L30 8.5625L13.3125 18.1875L30 27.875ZM9.375 43.875C8.78125 43.5238 8.32042 43.061 7.9925 42.4869C7.66417 41.9123 7.5 41.2917 7.5 40.625V19.375C7.5 18.7083 7.66417 18.0877 7.9925 17.5131C8.32042 16.939 8.78125 16.4762 9.375 16.125L28.125 5.3125C28.7221 4.97917 29.3504 4.8125 30.01 4.8125C30.67 4.8125 31.2917 4.97917 31.875 5.3125L50.625 16.125C51.2188 16.4762 51.6798 16.939 52.0081 17.5131C52.336 18.0877 52.5 18.7083 52.5 19.375V40.625C52.5 41.2917 52.336 41.9123 52.0081 42.4869C51.6798 43.061 51.2188 43.5238 50.625 43.875L31.875 54.6875C31.2779 55.0208 30.6496 55.1875 29.99 55.1875C29.33 55.1875 28.7083 55.0208 28.125 54.6875L9.375 43.875Z" fill="#323232"/>
</svg>
