<svg width="60" height="60" viewBox="0 0 60 60" fill="none" xmlns="http://www.w3.org/2000/svg">
<path d="M22.3125 27.9375L27.9375 22.3125L23.25 17.625L20.25 20.625L17.625 18L20.625 15L15.9375 10.375L10.3125 16L22.3125 27.9375ZM43.9375 49.6875L49.5625 44L44.875 39.3125L41.875 42.3125L39.25 39.6875L42.25 36.6875L37.625 32.0625L32 37.6875L43.9375 49.6875ZM17.25 52.5H7.5V42.75L19.625 30.625L5 16L15.875 5L30.625 19.6875L41.75 8.5625C42.125 8.1875 42.5417 7.91667 43 7.75C43.4583 7.58333 43.9167 7.5 44.375 7.5C44.8333 7.5 45.2917 7.58333 45.75 7.75C46.2083 7.91667 46.625 8.1875 47 8.5625L51.4375 13C51.8125 13.375 52.0833 13.7917 52.25 14.25C52.4167 14.7083 52.5 15.1667 52.5 15.625C52.5 16.0833 52.4167 16.5417 52.25 17C52.0833 17.4583 51.8125 17.875 51.4375 18.25L40.3125 29.375L55 44.0625L44.0625 54.9375L29.4375 40.3125L17.25 52.5ZM11.25 48.75H15.625L40.1875 24.125L35.8125 19.75L11.25 44.375V48.75ZM38 21.9375L35.8125 19.75L40.1875 24.125L38 21.9375Z" fill="#323232"/>
</svg>
