<svg width="60" height="60" viewBox="0 0 60 60" fill="none" xmlns="http://www.w3.org/2000/svg">
<path d="M25.0229 46.1136C21.1198 44.8106 17.9136 42.4814 15.4045 39.1261C12.8953 35.7708 11.6407 31.9106 11.6407 27.5455C11.6407 26.503 11.7145 25.4606 11.8621 24.4182C12.0097 23.3758 12.2639 22.3496 12.6247 21.3398L9.47597 23.1477L8 20.6557L16.5114 15.7693L21.4314 24.1739L18.873 25.6398L16.0195 20.8023C15.5603 21.8773 15.2077 22.9767 14.9617 24.1006C14.7157 25.2244 14.5927 26.3727 14.5927 27.5455C14.5927 31.3242 15.7161 34.6714 17.9628 37.5869C20.2096 40.5025 23.0713 42.4814 26.5481 43.5239L25.0229 46.1136ZM39.1922 20.7045V17.7727H44.8501C43.2757 15.6227 41.2996 13.9451 38.9216 12.7398C36.5437 11.5345 34.0099 10.9318 31.3204 10.9318C29.0572 10.9318 26.9498 11.339 24.9983 12.1534C23.0467 12.9678 21.3166 14.0917 19.8078 15.525L18.2826 12.8864C20.0538 11.3553 22.0463 10.1581 24.2603 9.29489C26.4743 8.43163 28.8276 8 31.3204 8C34.2067 8 36.9209 8.57822 39.4628 9.73466C42.0048 10.8911 44.2105 12.528 46.0801 14.6455V10.9318H49.032V20.7045H39.1922ZM36.9783 51L28.4668 46.1136L33.3867 37.7091L35.8959 39.175L33.0423 44.1102C37.3063 43.6867 40.8732 41.8951 43.7431 38.7352C46.6131 35.5754 48.0481 31.8455 48.0481 27.5455C48.0481 26.8614 48.0071 26.2017 47.9251 25.5665C47.8431 24.9313 47.7201 24.2879 47.5561 23.6364H50.6064C50.7376 24.2879 50.836 24.9394 50.9016 25.5909C50.9672 26.2424 51 26.8939 51 27.5455C51 32.2038 49.5322 36.3246 46.5967 39.908C43.6611 43.4913 39.9138 45.7553 35.3547 46.7L38.4542 48.508L36.9783 51Z" fill="#323232"/>
</svg>
