<svg width="60" height="60" viewBox="0 0 60 60" fill="none" xmlns="http://www.w3.org/2000/svg">
<path d="M11.25 52.5C10.25 52.5 9.375 52.125 8.625 51.375C7.875 50.625 7.5 49.75 7.5 48.75V11.25C7.5 10.25 7.875 9.375 8.625 8.625C9.375 7.875 10.25 7.5 11.25 7.5H24.1875C24.1042 5.95833 24.6458 4.57292 25.8125 3.34375C26.9792 2.11458 28.375 1.5 30 1.5C31.625 1.5 33.0208 2.11458 34.1875 3.34375C35.3542 4.57292 35.8958 5.95833 35.8125 7.5H48.75C49.75 7.5 50.625 7.875 51.375 8.625C52.125 9.375 52.5 10.25 52.5 11.25V48.75C52.5 49.75 52.125 50.625 51.375 51.375C50.625 52.125 49.75 52.5 48.75 52.5H11.25ZM30 8.625C30.5417 8.625 30.9896 8.44792 31.3438 8.09375C31.6979 7.73958 31.875 7.29167 31.875 6.75C31.875 6.20833 31.6979 5.76042 31.3438 5.40625C30.9896 5.05208 30.5417 4.875 30 4.875C29.4583 4.875 29.0104 5.05208 28.6562 5.40625C28.3021 5.76042 28.125 6.20833 28.125 6.75C28.125 7.29167 28.3021 7.73958 28.6562 8.09375C29.0104 8.44792 29.4583 8.625 30 8.625ZM11.25 46.4375C13.75 44.1042 16.5812 42.2188 19.7437 40.7812C22.9058 39.3438 26.3225 38.625 29.9937 38.625C33.6646 38.625 37.0833 39.3438 40.25 40.7812C43.4167 42.2188 46.25 44.1042 48.75 46.4375V11.25H11.25V46.4375ZM30.125 33.6875C32.5417 33.6875 34.5833 32.8542 36.25 31.1875C37.9167 29.5208 38.75 27.4792 38.75 25.0625C38.75 22.6458 37.9167 20.6042 36.25 18.9375C34.5833 17.2708 32.5417 16.4375 30.125 16.4375C27.7083 16.4375 25.6667 17.2708 24 18.9375C22.3333 20.6042 21.5 22.6458 21.5 25.0625C21.5 27.4792 22.3333 29.5208 24 31.1875C25.6667 32.8542 27.7083 33.6875 30.125 33.6875ZM14.6875 48.75H45.3125V48.1875C43.0625 46.2708 40.6458 44.8229 38.0625 43.8438C35.4792 42.8646 32.7917 42.375 30 42.375C27.2083 42.375 24.5208 42.8646 21.9375 43.8438C19.3542 44.8229 16.9375 46.2708 14.6875 48.1875V48.75ZM30.125 29.9375C28.7708 29.9375 27.6198 29.4635 26.6719 28.5156C25.724 27.5677 25.25 26.4167 25.25 25.0625C25.25 23.7083 25.724 22.5573 26.6719 21.6094C27.6198 20.6615 28.7708 20.1875 30.125 20.1875C31.4792 20.1875 32.6302 20.6615 33.5781 21.6094C34.526 22.5573 35 23.7083 35 25.0625C35 26.4167 34.526 27.5677 33.5781 28.5156C32.6302 29.4635 31.4792 29.9375 30.125 29.9375Z" fill="#323232"/>
</svg>
