<svg width="45" height="50" viewBox="0 0 45 50" fill="none" xmlns="http://www.w3.org/2000/svg">
<path d="M45 7.125C45 8.83333 44.4896 10.3229 43.4688 11.5938C42.4479 12.8646 41.2083 13.6667 39.75 14L39.75 27.3125C39.75 30.0625 38.8438 32.3438 37.0313 34.1563C35.2188 35.9688 32.9375 36.875 30.1875 36.875C27.4375 36.875 25.1563 35.9688 23.3438 34.1563C21.5313 32.3438 20.625 30.0625 20.625 27.3125L20.625 22.5C20.625 20.7917 20.0833 19.3958 19 18.3125C17.9167 17.2292 16.5208 16.6875 14.8125 16.6875C13.1042 16.6875 11.7083 17.2292 10.625 18.3125C9.54167 19.3958 9 20.7917 9 22.5L9 36C10.4583 36.375 11.6979 37.1875 12.7188 38.4375C13.7396 39.6875 14.25 41.1667 14.25 42.875C14.25 44.875 13.5625 46.5625 12.1875 47.9375C10.8125 49.3125 9.125 50 7.125 50C5.125 50 3.4375 49.3125 2.0625 47.9375C0.6875 46.5625 6.1115e-08 44.875 8.49648e-08 42.875C1.05336e-07 41.1667 0.510417 39.6875 1.53125 38.4375C2.55208 37.1875 3.79167 36.375 5.25 36L5.25 22.5C5.25 19.75 6.15625 17.4688 7.96875 15.6563C9.78125 13.8438 12.0625 12.9375 14.8125 12.9375C17.5625 12.9375 19.8438 13.8438 21.6563 15.6563C23.4688 17.4688 24.375 19.75 24.375 22.5L24.375 27.3125C24.375 29.0208 24.9167 30.4167 26 31.5C27.0833 32.5833 28.4792 33.125 30.1875 33.125C31.8958 33.125 33.2917 32.5833 34.375 31.5C35.4583 30.4167 36 29.0208 36 27.3125L36 14C34.5417 13.625 33.3021 12.8125 32.2813 11.5625C31.2604 10.3125 30.75 8.83333 30.75 7.125C30.75 5.125 31.4375 3.4375 32.8125 2.0625C34.1875 0.6875 35.875 4.27805e-07 37.875 4.51655e-07C39.875 4.75505e-07 41.5625 0.6875 42.9375 2.0625C44.3125 3.4375 45 5.125 45 7.125ZM10.5 42.875C10.5 41.9167 10.1771 41.1146 9.53125 40.4688C8.88542 39.8229 8.08333 39.5 7.125 39.5C6.16667 39.5 5.36458 39.8229 4.71875 40.4688C4.07292 41.1146 3.75 41.9167 3.75 42.875C3.75 43.8333 4.07292 44.6354 4.71875 45.2813C5.36458 45.9271 6.16667 46.25 7.125 46.25C8.08333 46.25 8.88542 45.9271 9.53125 45.2813C10.1771 44.6354 10.5 43.8333 10.5 42.875Z" fill="#323232"/>
</svg>
