<svg width="60" height="60" viewBox="0 0 60 60" fill="none" xmlns="http://www.w3.org/2000/svg">
<path d="M52.5 12.125C52.5 13.8333 51.9896 15.3229 50.9688 16.5938C49.9479 17.8646 48.7083 18.6667 47.25 19L47.25 32.3125C47.25 35.0625 46.3438 37.3438 44.5313 39.1563C42.7188 40.9688 40.4375 41.875 37.6875 41.875C34.9375 41.875 32.6563 40.9688 30.8438 39.1563C29.0313 37.3438 28.125 35.0625 28.125 32.3125L28.125 27.5C28.125 25.7917 27.5833 24.3958 26.5 23.3125C25.4167 22.2292 24.0208 21.6875 22.3125 21.6875C20.6042 21.6875 19.2083 22.2292 18.125 23.3125C17.0417 24.3958 16.5 25.7917 16.5 27.5L16.5 41C17.9583 41.375 19.1979 42.1875 20.2188 43.4375C21.2396 44.6875 21.75 46.1667 21.75 47.875C21.75 49.875 21.0625 51.5625 19.6875 52.9375C18.3125 54.3125 16.625 55 14.625 55C12.625 55 10.9375 54.3125 9.5625 52.9375C8.1875 51.5625 7.5 49.875 7.5 47.875C7.5 46.1667 8.01042 44.6875 9.03125 43.4375C10.0521 42.1875 11.2917 41.375 12.75 41L12.75 27.5C12.75 24.75 13.6563 22.4688 15.4688 20.6563C17.2813 18.8438 19.5625 17.9375 22.3125 17.9375C25.0625 17.9375 27.3438 18.8438 29.1563 20.6563C30.9688 22.4688 31.875 24.75 31.875 27.5L31.875 32.3125C31.875 34.0208 32.4167 35.4167 33.5 36.5C34.5833 37.5833 35.9792 38.125 37.6875 38.125C39.3958 38.125 40.7917 37.5833 41.875 36.5C42.9583 35.4167 43.5 34.0208 43.5 32.3125L43.5 19C42.0417 18.625 40.8021 17.8125 39.7813 16.5625C38.7604 15.3125 38.25 13.8333 38.25 12.125C38.25 10.125 38.9375 8.4375 40.3125 7.0625C41.6875 5.6875 43.375 5 45.375 5C47.375 5 49.0625 5.6875 50.4375 7.0625C51.8125 8.4375 52.5 10.125 52.5 12.125ZM18 47.875C18 46.9167 17.6771 46.1146 17.0313 45.4688C16.3854 44.8229 15.5833 44.5 14.625 44.5C13.6667 44.5 12.8646 44.8229 12.2188 45.4688C11.5729 46.1146 11.25 46.9167 11.25 47.875C11.25 48.8333 11.5729 49.6354 12.2188 50.2813C12.8646 50.9271 13.6667 51.25 14.625 51.25C15.5833 51.25 16.3854 50.9271 17.0313 50.2813C17.6771 49.6354 18 48.8333 18 47.875Z" fill="#323232"/>
</svg>
