<svg width="60" height="60" viewBox="0 0 60 60" fill="none" xmlns="http://www.w3.org/2000/svg">
<path d="M47.6426 49.2676L49.3926 47.5176L44.7051 42.8301V35.8301H42.2051V43.8301L47.6426 49.2676ZM8.89258 50.1426C7.86133 50.1426 6.97862 49.7753 6.24445 49.0407C5.50987 48.3065 5.14258 47.4238 5.14258 46.3926V8.89258C5.14258 7.86133 5.50987 6.97841 6.24445 6.24383C6.97862 5.50966 7.86133 5.14258 8.89258 5.14258H46.3926C47.4238 5.14258 48.3068 5.50966 49.0413 6.24383C49.7755 6.97841 50.1426 7.86133 50.1426 8.89258V29.4551C49.5592 29.1217 48.9447 28.8509 48.2988 28.6426C47.653 28.4342 47.0176 28.2676 46.3926 28.1426V8.89258H8.89258V46.3926H28.2051C28.3717 47.0593 28.5597 47.7086 28.7688 48.3407C28.9784 48.9728 29.228 49.5734 29.5176 50.1426H8.89258ZM8.89258 43.4551V46.3926V8.89258V28.1426V27.8926V43.4551ZM15.1426 40.1426H28.3301C28.4967 39.4759 28.6842 38.8301 28.8926 38.2051C29.1009 37.5801 29.3717 36.9759 29.7051 36.3926H15.1426V40.1426ZM15.1426 29.5176H36.6426C37.2259 29.2259 37.7884 28.9863 38.3301 28.7988C38.8717 28.6113 39.4759 28.4342 40.1426 28.2676V25.7676H15.1426V29.5176ZM15.1426 18.8926H40.1426V15.1426H15.1426V18.8926ZM43.4238 55.0801C40.1947 55.0801 37.4342 53.9238 35.1426 51.6113C32.8509 49.2988 31.7051 46.5593 31.7051 43.3926C31.7051 40.1247 32.8507 37.3388 35.142 35.0351C37.4332 32.7317 40.2042 31.5801 43.4551 31.5801C46.6634 31.5801 49.4238 32.7317 51.7363 35.0351C54.0488 37.3388 55.2051 40.1247 55.2051 43.3926C55.2051 46.5593 54.0488 49.2988 51.7363 51.6113C49.4238 53.9238 46.653 55.0801 43.4238 55.0801Z" fill="#323232"/>
</svg>
