<svg width="60" height="60" viewBox="0 0 60 60" fill="none" xmlns="http://www.w3.org/2000/svg">
<path d="M11.25 52.5C10.2188 52.5 9.33604 52.1327 8.60188 51.3981C7.86729 50.664 7.5 49.7812 7.5 48.75V11.25C7.5 10.2188 7.86729 9.33583 8.60188 8.60125C9.33604 7.86708 10.2188 7.5 11.25 7.5H24.0625C24.2708 6.04167 24.9375 4.84375 26.0625 3.90625C27.1875 2.96875 28.5 2.5 30 2.5C31.5 2.5 32.8125 2.96875 33.9375 3.90625C35.0625 4.84375 35.7292 6.04167 35.9375 7.5H48.75C49.7812 7.5 50.6642 7.86708 51.3988 8.60125C52.1329 9.33583 52.5 10.2188 52.5 11.25V48.75C52.5 49.7812 52.1329 50.664 51.3988 51.3981C50.6642 52.1327 49.7812 52.5 48.75 52.5H11.25ZM11.25 48.75H48.75V11.25H11.25V48.75ZM17.5 42.5H34.5625V38.75H17.5V42.5ZM17.5 31.875H42.5V28.125H17.5V31.875ZM17.5 21.25H42.5V17.5H17.5V21.25ZM30 10.1875C30.5833 10.1875 31.0938 9.96875 31.5312 9.53125C31.9688 9.09375 32.1875 8.58333 32.1875 8C32.1875 7.41667 31.9688 6.90625 31.5312 6.46875C31.0938 6.03125 30.5833 5.8125 30 5.8125C29.4167 5.8125 28.9062 6.03125 28.4688 6.46875C28.0312 6.90625 27.8125 7.41667 27.8125 8C27.8125 8.58333 28.0312 9.09375 28.4688 9.53125C28.9062 9.96875 29.4167 10.1875 30 10.1875Z" fill="#323232"/>
</svg>
