<svg width="50" height="52" viewBox="0 0 50 52" fill="none" xmlns="http://www.w3.org/2000/svg">
<path d="M3.75 3.75V22.0625V21.875V46.25V3.75ZM3.75 50C2.75 50 1.875 49.625 1.125 48.875C0.375 48.125 0 47.25 0 46.25V3.75C0 2.75 0.375 1.875 1.125 1.125C1.875 0.375 2.75 0 3.75 0H26.3125L40 13.6875V23.3125C39.4167 23.0208 38.8125 22.7708 38.1875 22.5625C37.5625 22.3542 36.9167 22.1875 36.25 22.0625V15.375H24.4375V3.75H3.75V46.25H23.4375C24.2708 47.125 25.1979 47.875 26.2188 48.5C27.2396 49.125 28.3542 49.625 29.5625 50H3.75ZM33.75 43.125C35.7083 43.125 37.3438 42.4688 38.6562 41.1562C39.9688 39.8438 40.625 38.2083 40.625 36.25C40.625 34.2917 39.9688 32.6562 38.6562 31.3438C37.3438 30.0312 35.7083 29.375 33.75 29.375C31.7917 29.375 30.1562 30.0312 28.8438 31.3438C27.5312 32.6562 26.875 34.2917 26.875 36.25C26.875 38.2083 27.5312 39.8438 28.8438 41.1562C30.1562 42.4688 31.7917 43.125 33.75 43.125ZM46.5 51.625L39.8025 44.9375C38.9342 45.5208 37.9896 45.9896 36.9688 46.3438C35.9479 46.6979 34.875 46.875 33.75 46.875C30.7987 46.875 28.29 45.8413 26.2238 43.7738C24.1579 41.7062 23.125 39.1958 23.125 36.2425C23.125 33.2892 24.1587 30.7812 26.2262 28.7188C28.2938 26.6562 30.8042 25.625 33.7575 25.625C36.7108 25.625 39.2188 26.6579 41.2812 28.7237C43.3438 30.79 44.375 33.2988 44.375 36.25C44.375 37.375 44.1979 38.4479 43.8438 39.4688C43.4896 40.4896 43.0208 41.4342 42.4375 42.3025L49.125 49L46.5 51.625Z" fill="#323232"/>
</svg>
