<svg width="60" height="60" viewBox="0 0 60 60" fill="none" xmlns="http://www.w3.org/2000/svg">
<path d="M11.25 8.75V27.0625V26.875V51.25V8.75ZM17.4375 33.75H29C29.4583 33.0417 29.9583 32.375 30.5 31.75C31.0417 31.125 31.6458 30.5417 32.3125 30H17.4375V33.75ZM17.4375 44.375H27.1875C27.0625 43.75 26.9688 43.125 26.9062 42.5C26.8438 41.875 26.8333 41.25 26.875 40.625H17.4375V44.375ZM11.25 55C10.25 55 9.375 54.625 8.625 53.875C7.875 53.125 7.5 52.25 7.5 51.25V8.75C7.5 7.75 7.875 6.875 8.625 6.125C9.375 5.375 10.25 5 11.25 5H33.8125L47.5 18.6875V28.3125C46.9167 28.0208 46.3125 27.7708 45.6875 27.5625C45.0625 27.3542 44.4167 27.1875 43.75 27.0625V20.375H31.9375V8.75H11.25V51.25H30.9375C31.7708 52.125 32.6979 52.875 33.7188 53.5C34.7396 54.125 35.8542 54.625 37.0625 55H11.25ZM41.25 48.125C43.2083 48.125 44.8438 47.4688 46.1562 46.1562C47.4688 44.8438 48.125 43.2083 48.125 41.25C48.125 39.2917 47.4688 37.6562 46.1562 36.3438C44.8438 35.0312 43.2083 34.375 41.25 34.375C39.2917 34.375 37.6562 35.0312 36.3438 36.3438C35.0312 37.6562 34.375 39.2917 34.375 41.25C34.375 43.2083 35.0312 44.8438 36.3438 46.1562C37.6562 47.4688 39.2917 48.125 41.25 48.125ZM54 56.625L47.3025 49.9375C46.4342 50.5208 45.4896 50.9896 44.4688 51.3438C43.4479 51.6979 42.375 51.875 41.25 51.875C38.2987 51.875 35.79 50.8413 33.7238 48.7738C31.6579 46.7062 30.625 44.1958 30.625 41.2425C30.625 38.2892 31.6587 35.7812 33.7262 33.7188C35.7938 31.6562 38.3042 30.625 41.2575 30.625C44.2108 30.625 46.7188 31.6579 48.7812 33.7237C50.8438 35.79 51.875 38.2988 51.875 41.25C51.875 42.375 51.6979 43.4479 51.3438 44.4688C50.9896 45.4896 50.5208 46.4342 49.9375 47.3025L56.625 54L54 56.625Z" fill="#323232"/>
</svg>
