<svg width="60" height="60" viewBox="0 0 60 60" fill="none" xmlns="http://www.w3.org/2000/svg">
<path d="M30 50C28 48.4167 25.8333 47.1875 23.5 46.3125C21.1667 45.4375 18.75 45 16.25 45C14.5 45 12.7812 45.2292 11.0938 45.6875C9.40625 46.1458 7.79167 46.7917 6.25 47.625C5.375 48.0833 4.53125 48.0625 3.71875 47.5625C2.90625 47.0625 2.5 46.3333 2.5 45.375V15.25C2.5 14.7917 2.61458 14.3542 2.84375 13.9375C3.07292 13.5208 3.41667 13.2083 3.875 13C5.79167 12 7.79167 11.25 9.875 10.75C11.9583 10.25 14.0833 10 16.25 10C18.6667 10 21.0312 10.3125 23.3438 10.9375C25.6562 11.5625 27.875 12.5 30 13.75V45.375C32.125 44 34.3542 42.9688 36.6875 42.2812C39.0208 41.5938 41.375 41.25 43.75 41.25C45.25 41.25 46.8854 41.3958 48.6562 41.6875C50.4271 41.9792 52.125 42.5833 53.75 43.5V11.9375C54.1621 12.0938 54.5671 12.2577 54.965 12.4294C55.3633 12.6015 55.75 12.7917 56.125 13C56.5417 13.25 56.875 13.5767 57.125 13.98C57.375 14.3829 57.5 14.8062 57.5 15.25V45.375C57.5 46.3333 57.0938 47.0625 56.2812 47.5625C55.4688 48.0625 54.625 48.0833 53.75 47.625C52.2083 46.7917 50.5938 46.1458 48.9062 45.6875C47.2188 45.2292 45.5 45 43.75 45C41.25 45 38.8333 45.4375 36.5 46.3125C34.1667 47.1875 32 48.4167 30 50ZM33.75 39.5625V17.5L50 1.25V25.4375L33.75 39.5625ZM26.25 43.5V16.0625C24.8333 15.2708 23.1875 14.6875 21.3125 14.3125C19.4375 13.9375 17.75 13.75 16.25 13.75C14.2917 13.75 12.4688 13.9583 10.7812 14.375C9.09375 14.7917 7.58333 15.3235 6.25 15.9706V43.5C7.70833 42.7917 9.28125 42.2396 10.9688 41.8438C12.6562 41.4479 14.4271 41.25 16.2812 41.25C18.1354 41.25 19.8958 41.4479 21.5625 41.8438C23.2292 42.2396 24.7917 42.7917 26.25 43.5Z" fill="#323232"/>
</svg>
