<svg width="60" height="60" viewBox="0 0 60 60" fill="none" xmlns="http://www.w3.org/2000/svg">
<path d="M27.9882 54.7143V46.9955H32.0404V54.7143H27.9882ZM3 30.5113V26.5865H10.9692V30.5113H3ZM49.0594 30.5113V26.5865H57.0286V30.5113H49.0594ZM47.506 48.3038L41.9681 42.9398L44.8721 40.1271L50.4101 45.491L47.506 48.3038ZM12.5225 48.3038L9.6185 45.491L15.1564 40.1271L18.0605 42.9398L12.5225 48.3038ZM30.0143 40.4541C26.6375 40.4541 23.7447 39.2876 21.3359 36.9545C18.9272 34.6214 17.7228 31.8195 17.7228 28.5489C17.7228 26.412 18.1955 24.4932 19.141 22.7925C20.0865 21.0917 21.4147 19.6962 23.1256 18.606V5H36.9029V18.606C38.6138 19.6962 39.942 21.0917 40.8875 22.7925C41.833 24.4932 42.3058 26.412 42.3058 28.5489C42.3058 31.8195 41.1014 34.6214 38.6926 36.9545C36.2838 39.2876 33.3911 40.4541 30.0143 40.4541ZM27.1778 17.2323C27.6505 17.1015 28.1233 17.0034 28.596 16.938C29.0688 16.8726 29.5415 16.8398 30.0143 16.8398C30.487 16.8398 30.9598 16.8726 31.4325 16.938C31.9053 17.0034 32.378 17.1015 32.8508 17.2323V8.92481H27.1778V17.2323ZM30.0224 36.5293C32.3132 36.5293 34.2578 35.7526 35.8561 34.1993C37.4545 32.6459 38.2536 30.7598 38.2536 28.541C38.2536 26.3222 37.4518 24.4387 35.848 22.8906C34.2443 21.3425 32.297 20.5684 30.0062 20.5684C27.7154 20.5684 25.7708 21.3451 24.1724 22.8985C22.5741 24.4518 21.7749 26.3379 21.7749 28.5567C21.7749 30.7755 22.5768 32.659 24.1805 34.2071C25.7843 35.7553 27.7316 36.5293 30.0224 36.5293Z" fill="#323232"/>
</svg>
