<svg width="60" height="60" viewBox="0 0 60 60" fill="none" xmlns="http://www.w3.org/2000/svg">
<path d="M6.25 47.5C5.21875 47.5 4.33604 47.1327 3.60188 46.3981C2.86729 45.664 2.5 44.7812 2.5 43.75V16.25C2.5 15.2188 2.86729 14.3358 3.60188 13.6012C4.33604 12.8671 5.21875 12.5 6.25 12.5H33.75C34.7812 12.5 35.6642 12.8671 36.3988 13.6012C37.1329 14.3358 37.5 15.2188 37.5 16.25V43.75C37.5 44.7812 37.1329 45.664 36.3988 46.3981C35.6642 47.1327 34.7812 47.5 33.75 47.5H6.25ZM45 27.5C44.2917 27.5 43.6979 27.2604 43.2188 26.7812C42.7396 26.3021 42.5 25.7083 42.5 25V15C42.5 14.2917 42.7396 13.6979 43.2188 13.2188C43.6979 12.7396 44.2917 12.5 45 12.5H55C55.7083 12.5 56.3021 12.7396 56.7812 13.2188C57.2604 13.6979 57.5 14.2917 57.5 15V25C57.5 25.7083 57.2604 26.3021 56.7812 26.7812C56.3021 27.2604 55.7083 27.5 55 27.5H45ZM46.25 23.75H53.75V16.25H46.25V23.75ZM6.25 43.75H33.75V16.25H6.25V43.75ZM10 37.5H30L23.4375 28.75L18.75 35L15.3125 30.4375L10 37.5ZM45 47.5C44.2917 47.5 43.6979 47.2604 43.2188 46.7812C42.7396 46.3021 42.5 45.7083 42.5 45V35C42.5 34.2917 42.7396 33.6979 43.2188 33.2188C43.6979 32.7396 44.2917 32.5 45 32.5H55C55.7083 32.5 56.3021 32.7396 56.7812 33.2188C57.2604 33.6979 57.5 34.2917 57.5 35V45C57.5 45.7083 57.2604 46.3021 56.7812 46.7812C56.3021 47.2604 55.7083 47.5 55 47.5H45ZM46.25 43.75H53.75V36.25H46.25V43.75Z" fill="#323232"/>
</svg>
